<svg version="1.1" xmlns="http://www.w3.org/2000/svg" xmlns:xlink="http://www.w3.org/1999/xlink" width="706.52401" height="457.44094" viewBox="0,0,706.52401,457.44094"><defs><radialGradient cx="230.10005" cy="92.70002" r="355.5" gradientUnits="userSpaceOnUse" id="color-1"><stop offset="0" stop-color="#ba674b"/><stop offset="1" stop-color="#864836"/></radialGradient><linearGradient x1="491.20006" y1="-43.59999" x2="491.20006" y2="389.80002" gradientUnits="userSpaceOnUse" id="color-2"><stop offset="0" stop-color="#a36e5d"/><stop offset="1" stop-color="#e09880"/></linearGradient><linearGradient x1="-9.79996" y1="-43.6" x2="-9.79996" y2="389.80001" gradientUnits="userSpaceOnUse" id="color-3"><stop offset="0" stop-color="#a36e5d"/><stop offset="1" stop-color="#e09880"/></linearGradient><radialGradient cx="418.5834" cy="313.43613" r="93.83333" gradientUnits="userSpaceOnUse" id="color-4"><stop offset="0" stop-color="#da7857"/><stop offset="1" stop-color="#da7857" stop-opacity="0"/></radialGradient><radialGradient cx="471.25007" cy="339.6028" r="93.83333" gradientUnits="userSpaceOnUse" id="color-5"><stop offset="0" stop-color="#da7857"/><stop offset="1" stop-color="#da7857" stop-opacity="0"/></radialGradient><linearGradient x1="0.97839" y1="306.9417" x2="40.5217" y2="359.15832" gradientUnits="userSpaceOnUse" id="color-6"><stop offset="0" stop-color="#da7857"/><stop offset="1" stop-color="#da7857" stop-opacity="0"/></linearGradient><linearGradient x1="476.02172" y1="306.9417" x2="436.4784" y2="359.15832" gradientUnits="userSpaceOnUse" id="color-7"><stop offset="0" stop-color="#da7857"/><stop offset="1" stop-color="#da7857" stop-opacity="0"/></linearGradient><linearGradient x1="246.85006" y1="250.47855" x2="246.85006" y2="291.80001" gradientUnits="userSpaceOnUse" id="color-8"><stop offset="0" stop-color="#da7857"/><stop offset="1" stop-color="#da7857" stop-opacity="0"/></linearGradient><linearGradient x1="246.85006" y1="250.47855" x2="246.85006" y2="264.80001" gradientUnits="userSpaceOnUse" id="color-9"><stop offset="0" stop-color="#5b3225"/><stop offset="1" stop-color="#5b3225" stop-opacity="0"/></linearGradient><linearGradient x1="249.01675" y1="247.75663" x2="249.01675" y2="252.96669" gradientUnits="userSpaceOnUse" id="color-10"><stop offset="0" stop-color="#1e100c"/><stop offset="1" stop-color="#1e100c" stop-opacity="0"/></linearGradient><linearGradient x1="238.85009" y1="30.80002" x2="238.85009" y2="261.80001" gradientUnits="userSpaceOnUse" id="color-11"><stop offset="0" stop-color="#da947d"/><stop offset="1" stop-color="#ffad91"/></linearGradient><radialGradient cx="239.1001" cy="146.30002" r="193.75" gradientUnits="userSpaceOnUse" id="color-12"><stop offset="0" stop-color="#b17865" stop-opacity="0"/><stop offset="1" stop-color="#b17865"/></radialGradient><linearGradient x1="53.26572" y1="184.71868" x2="186.83101" y2="184.71868" gradientUnits="userSpaceOnUse" id="color-13"><stop offset="0" stop-color="#976656"/><stop offset="1" stop-color="#b97d69"/></linearGradient><radialGradient cx="92.16379" cy="228.22148" r="5.76321" gradientUnits="userSpaceOnUse" id="color-14"><stop offset="0" stop-color="#543321"/><stop offset="1" stop-color="#543321" stop-opacity="0"/></radialGradient><radialGradient cx="95.80371" cy="228.22148" r="5.76321" gradientUnits="userSpaceOnUse" id="color-15"><stop offset="0" stop-color="#543321"/><stop offset="1" stop-color="#543321" stop-opacity="0"/></radialGradient><radialGradient cx="78.57277" cy="228.07863" r="5.76321" gradientUnits="userSpaceOnUse" id="color-16"><stop offset="0" stop-color="#543321"/><stop offset="1" stop-color="#543321" stop-opacity="0"/></radialGradient><radialGradient cx="82.21271" cy="228.07863" r="5.76321" gradientUnits="userSpaceOnUse" id="color-17"><stop offset="0" stop-color="#543321"/><stop offset="1" stop-color="#543321" stop-opacity="0"/></radialGradient><radialGradient cx="87.67259" cy="228.07863" r="5.76321" gradientUnits="userSpaceOnUse" id="color-18"><stop offset="0" stop-color="#543321"/><stop offset="1" stop-color="#543321" stop-opacity="0"/></radialGradient><radialGradient cx="91.31252" cy="228.07863" r="5.76321" gradientUnits="userSpaceOnUse" id="color-19"><stop offset="0" stop-color="#543321"/><stop offset="1" stop-color="#543321" stop-opacity="0"/></radialGradient><radialGradient cx="185.30664" cy="229.79291" r="5.76321" gradientUnits="userSpaceOnUse" id="color-20"><stop offset="0" stop-color="#543321"/><stop offset="1" stop-color="#543321" stop-opacity="0"/></radialGradient><radialGradient cx="188.94657" cy="229.79291" r="5.76321" gradientUnits="userSpaceOnUse" id="color-21"><stop offset="0" stop-color="#543321"/><stop offset="1" stop-color="#543321" stop-opacity="0"/></radialGradient><radialGradient cx="194.40645" cy="229.79291" r="5.76321" gradientUnits="userSpaceOnUse" id="color-22"><stop offset="0" stop-color="#543321"/><stop offset="1" stop-color="#543321" stop-opacity="0"/></radialGradient><radialGradient cx="198.04637" cy="229.79291" r="5.76321" gradientUnits="userSpaceOnUse" id="color-23"><stop offset="0" stop-color="#543321"/><stop offset="1" stop-color="#543321" stop-opacity="0"/></radialGradient><radialGradient cx="151.71562" cy="229.65006" r="5.76321" gradientUnits="userSpaceOnUse" id="color-24"><stop offset="0" stop-color="#543321"/><stop offset="1" stop-color="#543321" stop-opacity="0"/></radialGradient><radialGradient cx="155.35557" cy="229.65006" r="5.76321" gradientUnits="userSpaceOnUse" id="color-25"><stop offset="0" stop-color="#543321"/><stop offset="1" stop-color="#543321" stop-opacity="0"/></radialGradient><radialGradient cx="160.81545" cy="229.65006" r="5.76321" gradientUnits="userSpaceOnUse" id="color-26"><stop offset="0" stop-color="#543321"/><stop offset="1" stop-color="#543321" stop-opacity="0"/></radialGradient><radialGradient cx="164.45537" cy="229.65006" r="5.76321" gradientUnits="userSpaceOnUse" id="color-27"><stop offset="0" stop-color="#543321"/><stop offset="1" stop-color="#543321" stop-opacity="0"/></radialGradient><radialGradient cx="171.73521" cy="229.65006" r="5.76321" gradientUnits="userSpaceOnUse" id="color-28"><stop offset="0" stop-color="#543321"/><stop offset="1" stop-color="#543321" stop-opacity="0"/></radialGradient><radialGradient cx="175.37514" cy="229.65006" r="5.76321" gradientUnits="userSpaceOnUse" id="color-29"><stop offset="0" stop-color="#543321"/><stop offset="1" stop-color="#543321" stop-opacity="0"/></radialGradient><radialGradient cx="180.83502" cy="229.65006" r="5.76321" gradientUnits="userSpaceOnUse" id="color-30"><stop offset="0" stop-color="#543321"/><stop offset="1" stop-color="#543321" stop-opacity="0"/></radialGradient><radialGradient cx="184.47494" cy="229.65006" r="5.76321" gradientUnits="userSpaceOnUse" id="color-31"><stop offset="0" stop-color="#543321"/><stop offset="1" stop-color="#543321" stop-opacity="0"/></radialGradient><radialGradient cx="98.59236" cy="228.07863" r="5.76321" gradientUnits="userSpaceOnUse" id="color-32"><stop offset="0" stop-color="#543321"/><stop offset="1" stop-color="#543321" stop-opacity="0"/></radialGradient><radialGradient cx="102.23228" cy="228.07863" r="5.76321" gradientUnits="userSpaceOnUse" id="color-33"><stop offset="0" stop-color="#543321"/><stop offset="1" stop-color="#543321" stop-opacity="0"/></radialGradient><radialGradient cx="107.69216" cy="228.07863" r="5.76321" gradientUnits="userSpaceOnUse" id="color-34"><stop offset="0" stop-color="#543321"/><stop offset="1" stop-color="#543321" stop-opacity="0"/></radialGradient><radialGradient cx="111.33209" cy="228.07863" r="5.76321" gradientUnits="userSpaceOnUse" id="color-35"><stop offset="0" stop-color="#543321"/><stop offset="1" stop-color="#543321" stop-opacity="0"/></radialGradient><linearGradient x1="250.04433" y1="32.60002" x2="250.04433" y2="118.19531" gradientUnits="userSpaceOnUse" id="color-36"><stop offset="0" stop-color="#805649"/><stop offset="1" stop-color="#c88672"/></linearGradient><linearGradient x1="306.00005" y1="34.10002" x2="306.00005" y2="76.60002" gradientUnits="userSpaceOnUse" id="color-37"><stop offset="0" stop-color="#805649"/><stop offset="1" stop-color="#c88672"/></linearGradient><linearGradient x1="189.00007" y1="33.10002" x2="189.00007" y2="63.65601" gradientUnits="userSpaceOnUse" id="color-38"><stop offset="0" stop-color="#805649"/><stop offset="1" stop-color="#c88672"/></linearGradient><linearGradient x1="166.50007" y1="33.10002" x2="166.50007" y2="55.89241" gradientUnits="userSpaceOnUse" id="color-39"><stop offset="0" stop-color="#805649"/><stop offset="1" stop-color="#c88672"/></linearGradient><linearGradient x1="90.42632" y1="130.1669" x2="90.42632" y2="219.74908" gradientUnits="userSpaceOnUse" id="color-40"><stop offset="0" stop-color="#c30000"/><stop offset="1" stop-color="#0051c2"/></linearGradient></defs><g transform="translate(112.30994,62.81287)"><g data-paper-data="{&quot;isPaintingLayer&quot;:true}" fill-rule="nonzero" stroke-linejoin="miter" stroke-miterlimit="10" stroke-dasharray="" stroke-dashoffset="0" style="mix-blend-mode: normal"><path d="M-108.69994,-46.29998l-1,-9l701,-6v5l-159.48566,87.21192c0,0 -103.93808,-0.72447 -120.82806,-0.8422c-4.48103,-0.03123 -10.40663,-3.56515 -11.59963,-5.76438c-1.63554,-3.01503 -5.81669,-10.7227 -5.81669,-10.7227l-31.90049,-1.92574l-38.9152,-10.35033l-30.24804,10.14991c0,0 1.35448,6.0359 2.02508,9.0243c0.66188,2.94952 -9.3195,8.71226 -19.51404,8.6412c-25.16453,-0.1754 -130.92224,-0.91256 -130.92224,-0.91256z" fill="url(#color-1)" stroke="#6f3d2c" stroke-width="3" stroke-linecap="butt"/><path d="M390.20006,352.80002l42.5,-319l156.60001,-86.40001l3.39999,445.40001z" data-paper-data="{&quot;index&quot;:null}" fill="url(#color-2)" stroke="#6f4b3f" stroke-width="3" stroke-linecap="butt"/><path d="M-110.79995,389.80001l2.39999,-433.40001l155.60001,74.90001l44,321.5z" fill="url(#color-3)" stroke="#6f4b3f" stroke-width="3" stroke-linecap="butt"/><path d="M-4.89998,310.65002c0,0 -2.38459,0.63145 -7.87005,-3.60398c-5.1105,-3.94592 -8.37995,-10.64602 -8.37995,-10.64602l5.5,-3.25c0,0 3.22735,6.41521 7.04771,8.72569c4.8995,2.47686 9.20229,3.52431 9.20229,3.52431z" fill="#976656" stroke="none" stroke-width="0" stroke-linecap="butt"/><g><path d="M-36.36973,304.30643l-3.45758,-56.28697l20.85623,-8.21423l3.2771,51.81422z" fill="#ababab" stroke="#585859" stroke-width="3" stroke-linecap="butt"/><path d="M-30.64995,280.52502l-5,-12.25l17.5,-7v15c0,0 0.64596,0.49822 -1.13303,1.18016c-0.37519,0.14382 2.37678,13.7764 2.37678,13.7764l-4.92017,2.63384c0,0 -3.38975,-14.7692 -4.17107,-14.46969c-2.57026,0.98527 -4.65251,1.12929 -4.65251,1.12929z" fill="#878788" stroke="none" stroke-width="0" stroke-linecap="butt"/><g fill="none" stroke="#585859" stroke-width="3" stroke-linecap="round"><path d="M-30.56064,282.78995l-0.4,-6"/><path d="M-22.36064,279.38995l-0.4,-5.4"/><g><path d="M-27.76064,290.78995l4.6,-2.4"/><path d="M-26.16064,291.78995l2,-1.4"/></g></g><path d="M-34.25617,268.50693l-0.59917,-15.65374l12.4337,-5.36945l12.62969,1.36226l0.43361,15.99385l-10.75131,6.3615z" fill="#ababab" stroke="#585859" stroke-width="3" stroke-linecap="butt"/><path d="M-20.61751,270.80379l-0.57195,-16.01046l10.27286,-5.31555" fill="none" stroke="#585859" stroke-width="3" stroke-linecap="round"/><path d="M-33.39995,267.52502l-0.25,-13.25l12.25,1.25l0.25,14.25z" fill="#a1a1a1" stroke="none" stroke-width="0" stroke-linecap="butt"/><path d="M-34.00437,253.45637l13.0205,0.99385" fill="none" stroke="#585859" stroke-width="3" stroke-linecap="round"/></g><path d="M-103.89995,386.80002l167.00002,-127.5c0,0 95.68391,-7.7172 181.79216,-9.09074c53.31335,-0.85042 101.41433,0.93091 125.50718,0.8331c27.65869,-0.11228 62.20065,6.75764 62.20065,6.75764l141,134.5z" fill="#ff8b66" stroke="#6f3d2c" stroke-width="3" stroke-linecap="butt"/><path d="M324.75005,313.43613c0,-28.79157 16.10213,-49.41001 30.41441,-62.04994c3.92791,-3.46895 35.25226,2.38328 35.25226,2.38328l74.36049,61.56325l49.83155,45.72436c0,0 -85.17365,5.54572 -123.35871,5.54572c-51.82272,0 -66.5,-1.34395 -66.5,-53.16667z" fill="url(#color-4)" stroke="none" stroke-width="0" stroke-linecap="butt"/><path d="M377.41674,339.6028c0,-51.82272 52.16667,-77.16667 52.16667,-77.16667l87.86049,79.06326l49.83155,45.72435c0,0 -85.17365,5.54572 -123.35871,5.54572c-51.82272,0 -66.5,-1.34395 -66.5,-53.16667z" fill="url(#color-5)" stroke="none" stroke-width="0" stroke-linecap="butt"/><path d="M-8.18425,386.13119l-91.04333,-0.21662l158.41188,-121.94575l93.54333,10.21662z" fill="url(#color-6)" stroke="none" stroke-width="0" stroke-linecap="butt"/><path d="M316.77243,260.68544l116.04332,-0.71662l137.91188,131.44575l-88.54333,-1.78339z" data-paper-data="{&quot;index&quot;:null}" fill="url(#color-7)" stroke="none" stroke-width="0" stroke-linecap="butt"/><path d="M28.10005,289.30001l35.00001,-29.5c0,0 95.68391,-7.71721 181.79217,-9.09074c53.31335,-0.85041 101.41433,0.9309 125.50719,0.8331c27.6587,-0.11228 62.20065,6.75764 62.20065,6.75764l33,33.5z" fill="url(#color-8)" stroke="#6f3d2c" stroke-width="0" stroke-linecap="butt"/><path d="M64.60004,263.43354l-1.49998,-9.72431c0,0 94.68391,-4.67468 180.79217,-5.15073c53.31335,-0.29474 105.74766,-0.01069 129.84052,-0.04459c27.6587,-0.03891 54.86732,4.67544 54.86732,4.67544l10,12.11066z" fill="url(#color-9)" stroke="#6f3d2c" stroke-width="0" stroke-linecap="butt"/><path d="M79.93336,252.50384l-3.83331,-4.08037c0,0 81.68391,-0.44869 167.79217,-0.61859c53.31335,-0.10519 105.74766,-0.00382 129.84052,-0.01591c27.6587,-0.01389 48.20065,5.17772 48.20065,5.17772z" fill="url(#color-10)" stroke="#6f3d2c" stroke-width="0" stroke-linecap="butt"/><path d="M60.60009,261.80001l-15,-231c0,0 89.29401,0.6922 143.38593,1.11152c15.74536,0.12206 37.10748,4.78378 60.0158,4.96136c19.63731,0.15223 40.2782,-4.18389 60.98855,-4.02334c63.31692,0.49083 122.60971,0.95046 122.60971,0.95046l-2,226l-52.35118,0.28653l-4.73401,-5.49258c0,0 6.0417,-43.683 8.46483,-61.95914c1.92296,-14.50358 4.92347,-39.02003 4.92347,-39.02003c0,0 -15.805,-20.84526 -23.36147,-30.53867c-6.97663,-8.94959 -20.37688,-25.56866 -20.37688,-25.56866c0,0 -20.82666,4.93316 -27.13039,9.55313c-5.2172,3.82366 -18.89198,7.50447 -25.38139,7.12926c-6.75993,-0.39086 -22.45247,6.80299 -22.45247,6.80299c0,0 -18.05433,10.00622 -24.36154,18.51838c-7.32099,9.88035 -16.97806,37.27318 -16.97806,37.27318c0,0 -3.76661,21.85618 -1.2782,33.16706c3.39091,15.41308 19.76744,50.87422 19.76744,50.87422zM138.35002,130.30003l58,-11.5l-3.71429,-50.64286l-65.28571,13.14286z" fill="#9a6858" stroke="#6f4b3f" stroke-width="3" stroke-linecap="butt"/><path d="M126.49295,80.42502l-6.42857,-3.57143l70.71429,-12.71429l1.28571,3z" fill="#81584a" stroke="none" stroke-width="0" stroke-linecap="butt"/><path d="M60.35009,261.80001l-15,-231c0,0 74.87647,0.58044 140.14,1.08636c22.23301,0.17235 43.85041,5.83605 60.5119,5.96521c19.31499,0.14973 41.72006,-5.15721 67.01133,-4.96115c57.66457,0.44701 119.33677,0.90959 119.33677,0.90959l0.5,226l-53.25118,0.28653c0,0 9.57718,-70.33437 11.92532,-88.48176c1.01441,-7.83981 1.92897,-18.59 1.92897,-18.59c0,0 -24.26541,-32.46367 -32.52685,-43.29316c-4.96141,-6.50366 -12.4115,-15.61415 -12.4115,-15.61415c0,0 -18.005,12.34815 -25.34958,17.60414c-5.95717,4.26311 -15.43351,11.58136 -15.43351,11.58136c0,0 -19.51224,-1.436 -26.85717,-1.86068c-4.80541,-0.27784 -12.924,-0.43944 -12.924,-0.43944c0,0 -13.32309,17.13113 -19.89168,25.99604c-7.16019,9.66333 -21.44792,29.79552 -21.44792,29.79552c0,0 2.81987,18.49927 5.33827,29.94644c3.38477,15.38521 13.15097,54.09484 13.15097,54.09484zM131.35002,130.30003l65,-11.5l-5,-55.5l-72.5,13.5z" fill="url(#color-11)" stroke="#6f4b3f" stroke-width="3" stroke-linecap="butt"/><path d="M60.3501,261.80001l-15,-231c0,0 70.79286,0.54879 141.6399,1.09799c25.03626,0.19408 43.07928,4.88821 65.0073,5.05819c16.32216,0.12653 37.91842,-4.26033 49.50132,-4.17054c50.87344,0.39437 130.85148,1.01436 130.85148,1.01436l0.5,226l-53.25118,0.28653c0,0 9.57718,-70.33437 11.92532,-88.48176c1.01441,-7.83981 1.92897,-18.59 1.92897,-18.59c0,0 -24.26541,-32.46367 -32.52685,-43.29316c-4.96141,-6.50366 -12.4115,-15.61415 -12.4115,-15.61415c0,0 -18.005,12.34815 -25.34958,17.60414c-5.95717,4.26311 -15.43351,11.58136 -15.43351,11.58136c0,0 -19.51224,-1.436 -26.85717,-1.86068c-4.80541,-0.27784 -12.924,-0.43944 -12.924,-0.43944c0,0 -13.32309,17.13113 -19.89168,25.99604c-7.16019,9.66333 -21.44792,29.79552 -21.44792,29.79552c0,0 2.81987,18.49927 5.33827,29.94644c3.38477,15.38521 13.15097,54.09484 13.15097,54.09484zM131.35002,130.30004l65,-11.5l-5,-55.5l-72.5,13.5z" fill="url(#color-12)" stroke="#6f4b3f" stroke-width="3" stroke-linecap="butt"/><path d="M119.45009,77.35002l7.25,3.75" fill="none" stroke="#6f4b3f" stroke-width="3" stroke-linecap="round"/><path d="M387.12007,153.56l5.8,-0.2" fill="none" stroke="#6f4b3f" stroke-width="3" stroke-linecap="round"/><path d="M65.16433,288.71214c0,0 -7.81019,-6.53216 -11.11708,-9.29792c-0.07254,-0.06068 -3.21231,-0.16691 -5.86732,1.7041c-4.95052,3.48867 -11.9308,10.75573 -20.36273,16.2076c-2.59394,1.67717 -6.14321,1.86101 -8.52757,3.48552c-9.36557,6.38094 -10.65319,8.38192 -10.84304,8.22313c-0.07759,-0.06489 -2.36208,2.08067 -5.43263,2.65656c-2.37813,0.44602 -5.72796,-0.14975 -5.72796,-0.14975c0,0 4.1486,-3.60595 5.69287,-4.95924c3.57539,-3.13324 8.02533,-7.39532 14.46079,-11.78389c2.4516,-1.67183 5.77022,-1.86202 8.33501,-3.51515c7.62287,-4.91328 13.15904,-11.35514 17.32114,-14.60038c2.38638,-1.86069 4.99574,-2.08145 4.80273,-2.24287c-0.93341,-0.78067 -1.06753,-1.06103 -1.06753,-1.06103l12.5,-10.5l122.5082,-0.58326l-1.134,28.65982l-5.847,-16.86651c0,0 -99.90765,-0.98962 -99.016,-0.39345c4.43191,2.9632 12.48881,8.35007 12.48881,8.35007z" fill="#874a37" stroke="none" stroke-width="0" stroke-linecap="butt"/><g fill="none" stroke="#151516" stroke-width="6" stroke-linecap="round"><path d="M93.10005,224.02503c0,0 -2.82936,19.0284 -9.37841,31.1808c-3.2099,5.95628 -9.91252,10.56103 -12.32961,11.05853c-6.33234,1.30336 -12.3423,1.44017 -14.634,3.94814c-1.78881,1.95762 -2.59656,3.84791 -4.88408,6.04732c-1.79856,1.72928 -5.65207,3.49512 -7.50516,5.23746c-8.98517,8.44817 -17.81073,16.41883 -21.75019,16.27382c-7.87238,-0.28978 -15.21299,15.72095 -22.51793,5.8744c-2.67349,-3.60369 -7.91662,-9.5472 -10.22595,-17.68151c-3.34144,-11.76976 -3.27467,-25.93897 -3.27467,-25.93897"/><path d="M93.10005,224.02503c0,0 -2.82936,19.0284 -9.37841,31.1808c-3.2099,5.95628 -9.91252,10.56103 -12.32961,11.05853c-6.33234,1.30336 -12.3423,1.44017 -14.634,3.94814c-1.78881,1.95762 -2.34656,3.84791 -4.63408,6.04732c-1.79856,1.72928 -5.65207,4.24512 -7.50516,5.98746c-8.98517,8.44817 -17.81073,16.41883 -21.75019,16.27382c-7.87238,-0.28978 -15.96299,15.47095 -23.26793,5.6244c-0.18594,-0.25063 -2.86854,-2.44128 -5.32067,-5.48789c-2.82339,-3.50788 -5.5041,-8.06911 -6.40571,-10.7657c-4.02678,-12.04354 -2.77425,-27.11689 -2.77425,-27.11689"/></g><g fill="none" stroke="#202022" stroke-width="2.5" stroke-linecap="round"><path d="M93.10005,224.02503c0,0 -2.82936,19.0284 -9.37841,31.1808c-3.2099,5.95628 -9.91252,10.56103 -12.32961,11.05853c-6.33234,1.30336 -12.3423,1.44017 -14.634,3.94814c-1.78881,1.95762 -2.59656,3.84791 -4.88408,6.04732c-1.79856,1.72928 -5.65207,3.49512 -7.50516,5.23746c-8.98517,8.44817 -17.81073,16.41883 -21.75019,16.27382c-7.87238,-0.28978 -14.46299,16.22095 -21.76793,6.3744c-2.28255,-3.07672 -8.95716,-7.37771 -11.14682,-14.27842c-4.08596,-12.87691 -3.1038,-29.84206 -3.1038,-29.84206"/><path d="M93.10005,224.02503c0,0 -2.82936,19.0284 -9.37841,31.1808c-3.2099,5.95628 -9.91252,10.56103 -12.32961,11.05853c-6.33234,1.30336 -12.3423,1.44017 -14.634,3.94814c-1.78881,1.95762 -2.34656,3.84791 -4.63408,6.04732c-1.79856,1.72928 -5.65207,4.24512 -7.50516,5.98746c-8.98517,8.44817 -17.81073,16.41883 -21.75019,16.27382c-7.87238,-0.28978 -14.96299,15.97095 -22.26793,6.1244c-2.14482,-2.89107 -9.29943,-6.35215 -11.56294,-12.72334c-4.64036,-13.06142 -3.93768,-31.14714 -3.93768,-31.14714"/></g><path d="M61.66434,260.63335l-8.39862,-128.64634l3.0799,-0.30682l-0.43709,-6.52091c0,0 -0.67728,1.08573 -0.72203,2.6509c-0.05398,1.88808 0.17571,4.39795 -0.01888,5.54685c-0.27639,1.6319 -1.36856,-0.63534 -1.41583,-1.40594c-0.04693,-0.76486 -0.32116,-2.4136 -0.27237,-4.47299c0.03403,-1.43627 0.31078,-3.07228 0.57054,-4.7475c0.16937,-1.0923 1.48531,-2.20127 1.59002,-3.28242c0.45479,-4.69572 -0.08879,-8.86653 -0.08879,-8.86653l22.81637,-1.77764l1.30177,17.01846l5.49931,100.28427l44.24339,-0.5888c0,0 -0.26639,-16.95407 -0.44244,-32.61926c-0.00861,-0.76655 -0.65335,8.69247 -3.80646,15.41336c-0.46745,0.99638 -2.66275,5.6671 -5.51789,7.5229c-3.97897,2.58626 -9.00392,2.29644 -10.3309,1.953c-3.05534,-0.79077 0.06474,-2.94339 0.05406,-3.89374c-0.00212,-0.18828 3.94677,-1.2192 7.18475,-5.07354c2.49656,-2.97179 4.26636,-8.63586 5.36011,-10.60833c3.73295,-6.73201 6.92765,-23.5142 6.92427,-23.81498c-0.03784,-3.36737 -0.07763,-6.90781 -0.07763,-6.90781l17.03338,-19.40571l41.03774,-0.45049l-1.16667,112.66667z" fill="url(#color-13)" stroke="none" stroke-width="0" stroke-linecap="butt"/><path d="M45.25005,271.47499c0,0 -0.346,-7.61072 -0.48333,-11.82225c-0.03244,-0.99477 -2.08711,-0.10394 -2.08711,-0.10394l-0.17955,-10.07381l11.40562,-9.68211l-5.6278,-104.13844l2.36193,-2.94675l7.02691,103.7673l1.25,24.66667z" fill="#976656" stroke="none" stroke-width="0" stroke-linecap="butt"/><path d="M88.10004,228.27502c0,0 -1.50061,13.19508 -2.641,18.41457c-1.01053,4.62515 -3.859,11.33543 -3.859,11.33543" fill="none" stroke="#151516" stroke-width="5" stroke-linecap="round"/><g><path d="M191.56672,267.93334l0.5,-41.15497h14.33333l-0.38888,37.82163l-2.1753,2.6847z" fill="#492c1d" stroke="#3f2619" stroke-width="3" stroke-linecap="butt"/><path d="M93.49768,266.71214l-0.5,-25.83333l14.5,-0.33333l0.9227,23.78997l-3.75603,3.04336z" fill="#492c1d" stroke="#3f2619" stroke-width="3" stroke-linecap="butt"/><path d="M67.06672,287.60002l-1,-47.66667l18.33333,-1l2,43.33333l-5.11786,6.23941z" fill="#6f442c" stroke="#3f2619" stroke-width="3" stroke-linecap="butt"/><path d="M181.73339,289.60002v-54.33333h19l-0.28133,49.588l-2.88533,4.74533z" fill="#6f442c" stroke="#3f2619" stroke-width="3" stroke-linecap="butt"/><path d="M197.33103,287.04546v-39.33334l-14.16667,-0.16667l-0.12957,-3.8818l14.29623,-0.6182h2.5v40.83333z" fill="#583523" stroke="none" stroke-width="0" stroke-linecap="butt"/><path d="M81.49765,286.87881c0,0 -2.00351,-32.80739 -2.40241,-39.33929c-0.07056,-1.15542 -11.52476,-0.96795 -11.52476,-0.96795l-0.36149,-4.46267l11.62198,1.10325l4.5,-1l2.16667,39.83333z" fill="#583523" stroke="none" stroke-width="0" stroke-linecap="butt"/><path d="M56.73339,235.28336l37.66667,-16.83334l114,0.33333l0.19842,8.45929l-7.19842,17.04071l-144.66806,-0.65958z" fill="#6f442c" stroke="#3f2619" stroke-width="3" stroke-linecap="butt"/><path d="M57.73338,236.03336l142.33334,-0.66667l0.66667,8.33333" fill="none" stroke="#3f2619" stroke-width="3" stroke-linecap="round"/><path d="M207.73339,219.70002l-8,16" fill="none" stroke="#3f2619" stroke-width="3" stroke-linecap="round"/><path d="M81.01316,287.90003l-1.83333,-43.33334" fill="none" stroke="#3f2619" stroke-width="3" stroke-linecap="round"/><path d="M196.67985,244.23336v44" fill="none" stroke="#3f2619" stroke-width="3" stroke-linecap="round"/><path d="M103.83102,244.54547l0.33333,20.66667" fill="none" stroke="#3f2619" stroke-width="3" stroke-linecap="round"/></g><g stroke="none" stroke-width="0" stroke-linecap="butt"><path d="M86.40058,228.22148c0,-1.09848 11.52642,-2.08445 11.52642,0c0,3.18293 -2.58028,5.76321 -5.76321,5.76321c-3.18293,0 -5.76321,-2.58028 -5.76321,-5.76321z" fill="url(#color-14)"/><path d="M90.0405,228.22148c0,-1.09848 11.52642,-2.08445 11.52642,0c0,3.18293 -2.58028,5.76321 -5.76321,5.76321c-3.18293,0 -5.76321,-2.58028 -5.76321,-5.76321z" fill="url(#color-15)"/></g><g stroke="none" stroke-width="0" stroke-linecap="butt"><g><path d="M72.80957,228.07863c0,-1.09848 11.52642,-2.08445 11.52642,0c0,3.18293 -2.58028,5.76321 -5.76321,5.76321c-3.18294,0 -5.76321,-2.58028 -5.76321,-5.76321z" fill="url(#color-16)"/><path d="M76.4495,228.07863c0,-1.09848 11.52642,-2.08445 11.52642,0c0,3.18293 -2.58028,5.76321 -5.76321,5.76321c-3.18293,0 -5.76321,-2.58028 -5.76321,-5.76321z" fill="url(#color-17)"/></g><g><path d="M81.90936,228.07863c0,-1.09848 11.52642,-2.08445 11.52642,0c0,3.18293 -2.58028,5.76321 -5.76321,5.76321c-3.18293,0 -5.76321,-2.58028 -5.76321,-5.76321z" fill="url(#color-18)"/><path d="M85.54931,228.07863c0,-1.09848 11.52642,-2.08445 11.52642,0c0,3.18293 -2.58028,5.76321 -5.76321,5.76321c-3.18293,0 -5.76321,-2.58028 -5.76321,-5.76321z" fill="url(#color-19)"/></g></g><g stroke="none" stroke-width="0" stroke-linecap="butt"><g><path d="M179.54343,229.79291c0,-1.09848 11.52642,-2.08445 11.52642,0c0,3.18293 -2.58028,5.76321 -5.76321,5.76321c-3.18293,0 -5.76321,-2.58028 -5.76321,-5.76321z" fill="url(#color-20)"/><path d="M183.18336,229.79291c0,-1.09848 11.52642,-2.08445 11.52642,0c0,3.18293 -2.58028,5.76321 -5.76321,5.76321c-3.18293,0 -5.76321,-2.58028 -5.76321,-5.76321z" fill="url(#color-21)"/></g><g><path d="M188.64324,229.79291c0,-1.09848 11.52642,-2.08445 11.52642,0c0,3.18293 -2.58028,5.76321 -5.76321,5.76321c-3.18293,0 -5.76321,-2.58028 -5.76321,-5.76321z" fill="url(#color-22)"/><path d="M192.28316,229.79291c0,-1.09848 11.52642,-2.08445 11.52642,0c0,3.18293 -2.58028,5.76321 -5.76321,5.76321c-3.18293,0 -5.76321,-2.58028 -5.76321,-5.76321z" fill="url(#color-23)"/></g></g><g stroke="none" stroke-width="0" stroke-linecap="butt"><g><g><path d="M145.95244,229.65006c0,-1.09848 11.52642,-2.08445 11.52642,0c0,3.18293 -2.58028,5.76321 -5.76321,5.76321c-3.18293,0 -5.76321,-2.58028 -5.76321,-5.76321z" fill="url(#color-24)"/><path d="M149.59236,229.65006c0,-1.09848 11.52642,-2.08445 11.52642,0c0,3.18293 -2.58028,5.76321 -5.76321,5.76321c-3.18293,0 -5.76321,-2.58028 -5.76321,-5.76321z" fill="url(#color-25)"/></g><g><path d="M155.05221,229.65006c0,-1.09848 11.52642,-2.08445 11.52642,0c0,3.18293 -2.58028,5.76321 -5.76321,5.76321c-3.18293,0 -5.76321,-2.58028 -5.76321,-5.76321z" fill="url(#color-26)"/><path d="M158.69216,229.65006c0,-1.09848 11.52642,-2.08445 11.52642,0c0,3.18293 -2.58028,5.76321 -5.76321,5.76321c-3.18293,0 -5.76321,-2.58028 -5.76321,-5.76321z" fill="url(#color-27)"/></g></g><g><g><path d="M165.97198,229.65006c0,-1.09848 11.52642,-2.08445 11.52642,0c0,3.18293 -2.58028,5.76321 -5.76321,5.76321c-3.18293,0 -5.76321,-2.58028 -5.76321,-5.76321z" fill="url(#color-28)"/><path d="M169.61193,229.65006c0,-1.09848 11.52642,-2.08445 11.52642,0c0,3.18293 -2.58028,5.76321 -5.76321,5.76321c-3.18293,0 -5.76321,-2.58028 -5.76321,-5.76321z" fill="url(#color-29)"/></g><g><path d="M175.07181,229.65006c0,-1.09848 11.52642,-2.08445 11.52642,0c0,3.18293 -2.58028,5.76321 -5.76321,5.76321c-3.18293,0 -5.76321,-2.58028 -5.76321,-5.76321z" fill="url(#color-30)"/><path d="M178.71173,229.65006c0,-1.09848 11.52642,-2.08445 11.52642,0c0,3.18293 -2.58028,5.76321 -5.76321,5.76321c-3.18293,0 -5.76321,-2.58028 -5.76321,-5.76321z" fill="url(#color-31)"/></g></g></g><g stroke="none" stroke-width="0" stroke-linecap="butt"><path d="M92.82915,228.07863c0,-1.09848 11.52642,-2.08445 11.52642,0c0,3.18293 -2.58028,5.76321 -5.76321,5.76321c-3.18293,0 -5.76321,-2.58028 -5.76321,-5.76321z" fill="url(#color-32)"/><path d="M96.46907,228.07863c0,-1.09848 11.52642,-2.08445 11.52642,0c0,3.18293 -2.58028,5.76321 -5.76321,5.76321c-3.18293,0 -5.76321,-2.58028 -5.76321,-5.76321z" fill="url(#color-33)"/></g><g stroke="none" stroke-width="0" stroke-linecap="butt"><path d="M101.92895,228.07863c0,-1.09848 11.52642,-2.08445 11.52642,0c0,3.18293 -2.58028,5.76321 -5.76321,5.76321c-3.18293,0 -5.76321,-2.58028 -5.76321,-5.76321z" fill="url(#color-34)"/><path d="M105.56888,228.07863c0,-1.09848 11.52642,-2.08445 11.52642,0c0,3.18293 -2.58028,5.76321 -5.76321,5.76321c-3.18293,0 -5.76321,-2.58028 -5.76321,-5.76321z" fill="url(#color-35)"/></g><path d="M82.09458,119.13708l-5.69355,0.89314l-0.5379,-24.64555l6.02314,-3.32794l25.83049,1.04155l0.62493,25.83049z" fill="#ababab" stroke="#585859" stroke-width="3" stroke-linecap="butt"/><path d="M77.30343,119.76201l-0.20831,-23.9557l3.9579,-1.87479l1.66648,24.99725z" fill="#828282" stroke="none" stroke-width="0" stroke-linecap="butt"/><g fill="none" stroke-linecap="round"><path d="M70.71671,131.30003c0,0 -1.08438,-8.84642 0.2953,-13.53045c1.95222,-6.62781 7.7047,-11.96956 7.7047,-11.96956" stroke="#3e0000" stroke-width="5"/><path d="M70.88338,131.30002c0,0 -1.25104,-9.01308 0.12864,-13.69711c1.95222,-6.62781 7.7047,-11.96956 7.7047,-11.96956" stroke="#700000" stroke-width="2"/><path d="M81.81301,139.23272c0,0 -3.2656,-7.78931 -3.94848,-12.57855c-0.96627,-6.77668 0.90941,-14.17831 0.90941,-14.17831" stroke="#04003d" stroke-width="5"/><path d="M81.81301,139.23272c0,0 -3.2656,-7.78931 -3.94848,-12.57855c-0.96627,-6.77668 0.90941,-14.17831 0.90941,-14.17831" stroke="#002574" stroke-width="2"/></g><path d="M82.3029,119.5537l-1.04155,-27.28866" fill="none" stroke="#585859" stroke-width="3" stroke-linecap="round"/><path d="M70.59167,230.45834l15.25,-6.75c0,0 27.42495,-3.96669 28.90385,-2.98076c1.22164,0.81443 -20.65385,8.48076 -20.65385,8.48076z" fill="#543321" stroke="none" stroke-width="0" stroke-linecap="butt"/><path d="M76.09167,229.20834l-7.25,-108.5l37.75,-1l2.5937,2.347l6.20877,102.58097l-2.80247,3.57203z" fill="#ababab" stroke="#585859" stroke-width="3" stroke-linecap="butt"/><path d="M112.59171,226.45834l-7,-105.25l2.5,1.5l6.5,101z" fill="#828282" stroke="none" stroke-width="0" stroke-linecap="butt"/><path d="M148.59169,231.45834c0,0 -6.98559,-4.11971 -10.3258,-6.08957c-0.39914,-0.23539 -7.79916,0.48931 -11.15354,-0.04601c-1.30324,-0.20798 -6.05771,3.12403 -6.82314,2.68275c-0.53071,-0.30596 -3.77597,-1.12487 -3.51234,-2.39425c0.1273,-0.61291 -0.27869,-1.82999 -0.14272,-2.50474c0.23186,-1.15059 1.0857,-1.67807 1.93453,-1.85598c1.10253,-0.2311 3.53464,1.54799 3.4672,1.50823c-0.5772,-0.3404 2.58916,-0.41065 5.5607,-0.48897c2.66098,-0.07013 1.4951,-2.31146 1.4951,-2.31146h41.5v9z" fill="#543321" stroke="none" stroke-width="0" stroke-linecap="butt"/><path d="M149.28349,230.4351l-2.99205,-5.20892l0.21259,-86.21499l3.19875,-2.34649l58.25858,0.01789l-0.17354,93.51621z" data-paper-data="{&quot;index&quot;:null}" fill="#ababab" stroke="#585859" stroke-width="3" stroke-linecap="butt"/><path d="M470.06673,349.56669l34.33333,-23.33334l28.66667,29.33334z" fill="#874a37" stroke="none" stroke-width="0" stroke-linecap="butt"/><path d="M146.92001,223.72399l0.59208,-83.52185l2.46171,-2.29182l-0.48251,90.02093z" data-paper-data="{&quot;index&quot;:null}" fill="#6d6d6d" stroke="none" stroke-width="0" stroke-linecap="butt"/><path d="M514.73335,334.56669l30.33334,-237l5,4.66666l-16.66667,249.66667z" fill="#976656" stroke="none" stroke-width="0" stroke-linecap="butt"/><path d="M396.50007,285.80001l7.5,-178.5l79.05071,-15.94334l62.44929,3.94334l-26.0196,250.74659l-50.14707,1.92008z" fill="#6f442c" stroke="#3f2619" stroke-width="3" stroke-linecap="butt"/><path d="M483.3334,92.03335l-13.33333,254.66667" fill="none" stroke="#3f2619" stroke-width="3" stroke-linecap="round"/><path d="M429.91673,309.45002l8.75,-203.75l36.5505,-9.00443l3.9495,0.50443l-13,242.83333l-3.32953,-0.00843z" fill="#4e301f" stroke="#3f2619" stroke-width="3" stroke-linecap="butt"/><path d="M402.16673,283.03335l7,-172.33333l21.97768,-4.02742l3.02232,0.12357l-8.01923,200.64103l-4.79286,-0.4404z" fill="#4e301f" stroke="#3f2619" stroke-width="3" stroke-linecap="butt"/><path d="M425.5834,308.78335l8.75,-203.08333l40.5,-8.5l-13,240.83333z" fill="#643d28" stroke="#3f2619" stroke-width="3" stroke-linecap="butt"/><path d="M397.8334,284.36669l7,-173.66666l25,-3.75l-8.25,197.33333z" fill="#643d28" stroke="#3f2619" stroke-width="3" stroke-linecap="butt"/><path d="M421.91144,191.06261l-0.5584,23.99847l-4.33561,-1.22438l0.32179,-23.51119z" data-paper-data="{&quot;index&quot;:null}" fill="#3f2619" stroke="#3f2619" stroke-width="3" stroke-linecap="butt"/><path d="M433.8334,219.43084l0.75,-25.83333l6,1l-0.91667,26.91667z" fill="#3f2619" stroke="#3f2619" stroke-width="3" stroke-linecap="butt"/><path d="M202.00007,108.10002c-3.09652,-1.26454 -1.5,-75.5 -1.5,-75.5c0,0 3.70385,-0.14749 7.23985,0.37415c9.72771,1.43505 28.03749,4.65013 39.77973,4.82715c12.291,0.18529 33.05588,-2.31131 44.30428,-3.44658c4.38841,-0.44291 8.17615,-0.25472 8.17615,-0.25472l-4,37.5c0,0 -6.59153,-35.614 -9.33963,-33.59925c-2.6588,1.94929 -1.43221,41.55106 -4.02062,40.30821c-2.97139,-1.42674 -2.65541,-17.16291 -5.34526,-14.40972c-2.40605,2.4627 -8.69017,39.1358 -9.29882,39.1405c-1.985,0.01533 -0.7541,-31.05324 -3.55773,-27.66386c-3.20389,3.87326 -6.34451,42.87686 -6.47874,42.81937c-2.32298,-0.99497 0.77449,-67.44903 -1.6921,-68.3371c-2.08108,-0.74927 -9.16514,4.00155 -11.23498,3.25885c-2.9109,-1.04447 -8.25834,-10.456 -10.98615,-11.18823c-1.55784,-0.41817 -3.57483,23.13378 -5.04026,22.65379c-2.2719,-0.74415 -1.46312,-24.86061 -3.54151,-25.32091c-5.171,-1.1452 -6.18458,-0.94689 -9.5619,-0.01612c-4.11697,1.13461 -3.19316,55.822 -3.42185,55.83053c-3.0449,0.11361 -0.86674,-55.88703 -3.3854,-54.92237c-8.80801,3.37349 -6.78722,68.07205 -7.09505,67.94634z" fill="url(#color-36)" stroke="none" stroke-width="0" stroke-linecap="butt"/><path d="M303.9167,34.10002h4.16667c0,0 -1.7486,5.08454 -2.37602,11.53423c-0.85735,8.81331 -0.68397,27.80843 -0.86225,23.39216c-0.25118,-6.22218 -0.9284,-34.92639 -0.9284,-34.92639z" fill="url(#color-37)" stroke="none" stroke-width="0" stroke-linecap="butt"/><path d="M190.94035,58.21085c-0.29951,3.17514 -0.00824,-10.48167 -1.44858,-16.81813c-1.05406,-4.6371 -3.99171,-8.2927 -3.99171,-8.2927h7c0,0 -1.13772,20.63731 -1.55971,25.11083z" data-paper-data="{&quot;index&quot;:null}" fill="url(#color-38)" stroke="none" stroke-width="0" stroke-linecap="butt"/><path d="M165.00007,33.10002h3c0,0 -1.25899,2.7268 -1.71073,6.18571c-0.61729,4.7265 -0.49246,14.91342 -0.62082,12.54502c-0.18085,-3.3369 -0.66845,-18.73072 -0.66845,-18.73072z" data-paper-data="{&quot;index&quot;:null}" fill="url(#color-39)" stroke="none" stroke-width="0" stroke-linecap="butt"/><path d="M485.13482,91.48826c5.40907,0.34155 46.62199,2.90184 58.04485,3.62313c1.89377,0.11958 2.52023,0.80845 2.27242,3.19653c-3.08876,29.76586 -24.2698,231.33842 -25.71434,245.25921c-0.15594,1.50279 -1.40702,2.52348 -3.35307,2.59799c-9.90009,0.37907 -40.40924,1.54723 -44.99785,1.72292c-1.13453,0.04344 -1.67064,-0.8468 -1.59389,-2.28255c0.73937,-13.83128 11.81952,-221.10705 13.40328,-250.7342c0.12221,-2.28625 0.76693,-3.45703 1.93859,-3.38304z" fill="#643d28" stroke="#3f2619" stroke-width="3" stroke-linecap="butt"/><path d="M160.83935,223.58995v-79.6h9.6v79.6z" fill="#222222" stroke="#151516" stroke-width="3" stroke-linecap="butt"/><path d="M86.4673,214.94152c-1.25586,-16.81594 -5.29694,-70.92601 -5.961,-79.81785c-0.18089,-2.42212 0.81506,-4.51833 2.39572,-4.5889c2.63361,-0.11757 6.46643,-0.28868 8.18369,-0.36534c1.66788,-0.07446 4.12352,1.50591 4.25027,3.57557c0.52677,8.6017 4.10807,67.08181 5.02382,82.03529c0.13572,2.2162 -1.54644,3.56173 -3.65187,3.66394c-2.26309,0.10986 -4.92606,0.23913 -6.23385,0.30261c-1.51453,0.07352 -3.77213,-1.66352 -4.00677,-4.80532z" fill="url(#color-40)" stroke="#151516" stroke-width="3" stroke-linecap="butt"/><path d="M85.6953,115.56002l-0.4,-19.8l19,0.8l0.6,19.2z" fill="#222222" stroke="#151516" stroke-width="3" stroke-linecap="butt"/><path d="M152.00882,225.96c0,-1.43594 1.16406,-2.6 2.6,-2.6c1.43594,0 2.6,1.16406 2.6,2.6c0,1.43594 -1.16406,2.6 -2.6,2.6c-1.43594,0 -2.6,-1.16406 -2.6,-2.6z" fill="#585859" stroke="none" stroke-width="0" stroke-linecap="butt"/><path d="M200.60882,225.76c0,-1.43594 1.16406,-2.6 2.6,-2.6c1.43594,0 2.6,1.16406 2.6,2.6c0,1.43594 -1.16406,2.6 -2.6,2.6c-1.43594,0 -2.6,-1.16406 -2.6,-2.6z" fill="#585859" stroke="none" stroke-width="0" stroke-linecap="butt"/><path d="M152.00882,141.16c0,-1.43594 1.16406,-2.6 2.6,-2.6c1.43594,0 2.6,1.16406 2.6,2.6c0,1.43594 -1.16406,2.6 -2.6,2.6c-1.43594,0 -2.6,-1.16406 -2.6,-2.6z" fill="#585859" stroke="none" stroke-width="0" stroke-linecap="butt"/><path d="M200.60882,141.16c0,-1.43594 1.16406,-2.6 2.6,-2.6c1.43594,0 2.6,1.16406 2.6,2.6c0,1.43594 -1.16406,2.6 -2.6,2.6c-1.43594,0 -2.6,-1.16406 -2.6,-2.6z" fill="#585859" stroke="none" stroke-width="0" stroke-linecap="butt"/><path d="M71.30002,124.96c0,-1.43594 1.11929,-2.6 2.5,-2.6c1.38071,0 2.5,1.16406 2.5,2.6c0,1.43594 -1.11929,2.6 -2.5,2.6c-1.38071,0 -2.5,-1.16406 -2.5,-2.6z" fill="#585859" stroke="none" stroke-width="0" stroke-linecap="butt"/><path d="M98.50002,124.16c0,-1.43594 1.11929,-2.6 2.5,-2.6c1.38071,0 2.5,1.16406 2.5,2.6c0,1.43594 -1.11929,2.6 -2.5,2.6c-1.38071,0 -2.5,-1.16406 -2.5,-2.6z" fill="#585859" stroke="none" stroke-width="0" stroke-linecap="butt"/><path d="M77.70001,224.56c0,-1.43594 1.11929,-2.6 2.5,-2.6c1.38071,0 2.5,1.16406 2.5,2.6c0,1.43594 -1.11929,2.6 -2.5,2.6c-1.38071,0 -2.5,-1.16406 -2.5,-2.6z" fill="#585859" stroke="none" stroke-width="0" stroke-linecap="butt"/><path d="M104.90002,223.76c0,-1.43594 1.11929,-2.6 2.5,-2.6c1.38071,0 2.5,1.16406 2.5,2.6c0,1.43594 -1.11929,2.6 -2.5,2.6c-1.38071,0 -2.5,-1.16406 -2.5,-2.6z" fill="#585859" stroke="none" stroke-width="0" stroke-linecap="butt"/><path d="M148.10004,209.65002c0,0 -8.23674,4.77532 -9.7815,8.41864c-0.85157,2.00841 -1.26748,6.2803 -3.72862,7.73672c-2.30188,1.36217 -5.04963,1.51077 -7.97177,1.31886c-1.13187,-0.07434 -4.8365,0.23531 -6.23501,-2.27161c-0.8068,-1.44624 0.82189,-5.49784 -0.1372,-6.8093c-1.66995,-2.2835 -6.6459,-3.1433 -6.6459,-3.1433" fill="none" stroke="#151516" stroke-width="6" stroke-linecap="round"/><path d="M148.10002,209.65002c0,0 -8.23674,4.77533 -9.7815,8.41864c-0.85156,2.00841 -1.26748,6.2803 -3.72862,7.73672c-2.30188,1.36218 -5.04962,1.51077 -7.97176,1.31885c-1.13187,-0.07433 -4.83651,0.23531 -6.23501,-2.27161c-0.80679,-1.44625 0.82189,-5.49784 -0.1372,-6.8093c-1.66996,-2.2835 -6.6459,-3.1433 -6.6459,-3.1433" fill="none" stroke="#202022" stroke-width="2.5" stroke-linecap="round"/><path d="M148.10004,146.65002c0,0 -1.93473,5.04246 -2.82707,10.57632c-0.8783,5.44682 -10.87675,39.30559 -18.13152,44.84526c-7.57708,5.78579 -14.54141,6.32842 -14.54141,6.32842" fill="none" stroke="#151516" stroke-width="6" stroke-linecap="round"/><path d="M148.10002,146.65002c0,0 -1.93473,5.04246 -2.82707,10.57632c-0.87831,5.44681 -10.87674,39.30558 -18.13151,44.84525c-7.57708,5.78579 -14.54141,6.32842 -14.54141,6.32842" fill="none" stroke="#202022" stroke-width="2.5" stroke-linecap="round"/><path d="M105.34171,120.70834l6.5,106" fill="none" stroke="#585859" stroke-width="3" stroke-linecap="round"/><path d="M149.96538,137.41038l-0.20726,91.5165" data-paper-data="{&quot;index&quot;:null}" fill="none" stroke="#585859" stroke-width="3" stroke-linecap="round"/></g></g></svg>