<svg viewBox="0,0,584.5021,544.25151" height="544.25151" width="584.5021" xmlns:xlink="http://www.w3.org/1999/xlink" xmlns="http://www.w3.org/2000/svg" version="1.1"><g transform="translate(53.5012,76.48356)"><g style="mix-blend-mode: normal" stroke-dashoffset="0" stroke-dasharray="" stroke-miterlimit="10" stroke-linejoin="miter" fill-rule="nonzero" data-paper-data="{&quot;isPaintingLayer&quot;:true}"><path stroke-linecap="butt" stroke-width="2" stroke="#351a00" fill="#a06d5b" d="M10.2988,100.91644v-107.5h114.5l-15.65018,26.64144l-78.84982,8.35856l3.20426,51.2962l91.29574,21.2038z"></path><path stroke-linecap="butt" stroke-width="2" stroke="#351a00" fill="#ff8b66" d="M-24.83905,466.76795l-2.5,-219.67554l535.1781,-4.5v224.17554z"></path><path stroke-linecap="butt" stroke-width="2" stroke="#351a00" fill="#a06d5b" d="M-52.5012,254.84677v-330.33033h575.07508l7.40459,325.79608l-102.27135,2.45795l-4.72766,-8.91335l34.7802,-142.56941l-58.51413,-59.18061l-42.78113,36.11545l-75.19508,-14.00272l-65.93595,46.41359l29.59069,136.7564l-0.12796,7.45694zM104.53864,71.41644l-2.5,-53.5l-78.5,4l0.5,52.5z"></path><path stroke-linecap="butt" stroke-width="2" stroke="#351a00" fill="#ffad91" d="M-52.5012,254.84677v-330.33033h575.07508l7.40459,325.79608l-102.27135,2.45795l38.55254,-154.48276l-66.01413,-68.18061l-43.78113,40.11545l-73.19508,-14.00272l-69.43595,52.91359l30.96273,145.71334zM104.53864,71.41644l-2.5,-53.5l-78.5,4l0.5,52.5z"></path><path stroke-linecap="round" stroke-width="2" stroke="#351a00" fill="none" d="M355.7988,78.91644v-7.5"></path><path stroke-linecap="round" stroke-width="2" stroke="#351a00" fill="none" d="M281.7988,63.91644l1.5,-6"></path><path stroke-linecap="round" stroke-width="2" stroke="#351a00" fill="none" d="M466.27847,99.41644l-7,3"></path><path stroke-linecap="round" stroke-width="2" stroke="#351a00" fill="none" d="M399.77847,41.91644l0.5,-9.5"></path><path stroke-linecap="round" stroke-width="2" stroke="#351a00" fill="none" d="M29.7988,29.41644l-6,-7"></path><path stroke-linecap="butt" stroke-width="2" stroke="#271a0b" fill="#4d2e21" d="M8.2988,193.91644l15,-11l170.16667,-0.66667l-6.5,9z"></path><path stroke-linecap="butt" stroke-width="0" stroke="none" fill="#bd806c" d="M357.61908,-49.34903c6.95248,1.78286 -24.16696,50.33124 -26.16242,52.53222c-1.70229,1.87762 -5.51765,23.83709 -10.52367,25.76887c-5.00585,1.93171 2.79774,-22.44338 -3.66692,-22.58785c-19.09799,-0.42681 -54.53702,17.43169 -54.53702,17.43169c0,0 -7.2255,20.51451 -11.92276,20.53904c-2.48645,0.01298 -1.02538,-20.47123 -4.50501,-20.4533c-10.57073,0.05446 -51.68261,-17.30335 -69.5746,4.68049c-11.45249,14.07165 0.48025,71.12012 -9.42866,71.16421c-21.99954,0.09789 -36.33113,-114.32632 -44.99923,-114.32632c-10.83157,0 18.02678,-12.05334 20.97125,-21.95462c0.33502,-1.12656 18.56324,9.95462 52.52875,9.95462c33.96551,0 82.5,-60.03098 82.5,-46.5c0,0 67.43676,20.7036 79.32029,23.75095z"></path><path stroke-linecap="butt" stroke-width="2" stroke="#271a0b" fill="#4d2e21" d="M15.13213,294.41644v-77h12v77c0,0 -3.86248,2.5 -6,2.5c-1.80653,0 -6,-2.5 -6,-2.5z"></path><path stroke-linecap="butt" stroke-width="2" stroke="#271a0b" fill="#4d2e21" d="M155.63214,296.74977v-77h12v77c0,0 -3.86248,2.5 -6,2.5c-1.80653,0 -6,-2.5 -6,-2.5z"></path><path stroke-linecap="butt" stroke-width="2" stroke="#271a0b" fill="#4d2e21" d="M7.7988,224.41644l-0.5,-30l182,-3.66667l-21,34z"></path><path stroke-linecap="butt" stroke-width="2" stroke="#271a0b" fill="#4d2e21" d="M169.46547,224.58311l18,-32.5l7,-9l3,33.5z"></path></g></g></svg>