<svg version="1.1" xmlns="http://www.w3.org/2000/svg" xmlns:xlink="http://www.w3.org/1999/xlink" width="30.57142" height="30.57142" viewBox="0,0,30.57142,30.57142"><defs><radialGradient cx="94.94287" cy="106.18571" r="15.28571" gradientUnits="userSpaceOnUse" id="color-1"><stop offset="0" stop-color="#0051c2"/><stop offset="1" stop-color="#0051c2" stop-opacity="0"/></radialGradient></defs><g transform="translate(-79.65714,-90.9)"><g data-paper-data="{&quot;isPaintingLayer&quot;:true}" fill-rule="nonzero" stroke-linejoin="miter" stroke-miterlimit="10" stroke-dasharray="" stroke-dashoffset="0" style="mix-blend-mode: normal"><path d="M85.69527,115.56001l-0.4,-19.8l19,0.8l0.6,19.2z" fill="#222222" stroke="#151516" stroke-width="3" stroke-linecap="butt"/><g fill="none" stroke="#0051c2" stroke-width="2" stroke-linecap="round"><path d="M99.18379,106.13122h-8.21593"/><path d="M95.07583,110.23918v-8.21593"/><path d="M91.54509,102.60047l2.52316,2.52316"/><path d="M96.08341,107.13879l2.52317,2.52317"/><path d="M91.54509,109.66196l2.52316,-2.52316"/><path d="M96.08341,105.12364l2.52317,-2.52317"/><path d="M87.43712,102.60047l2.52316,2.52316"/><path d="M87.43712,109.66196l2.52316,-2.52316"/><path d="M91.54509,113.76992l2.52316,-2.52316"/><path d="M96.08341,111.24675l2.52317,2.52317"/><path d="M100.19137,105.12364l2.52317,-2.52317"/><path d="M100.19137,107.13879l2.52317,2.52317"/><path d="M96.08341,101.01568l2.52317,-2.52317"/><path d="M91.54509,98.4925l2.52316,2.52316"/></g><path d="M79.65715,106.18571c0,-8.44207 6.84365,-15.28571 15.28571,-15.28571c8.44207,0 15.28571,6.84365 15.28571,15.28571c0,8.44207 -6.84365,15.28571 -15.28571,15.28571c-8.44207,0 -15.28571,-6.84365 -15.28571,-15.28571z" fill="url(#color-1)" stroke="none" stroke-width="0" stroke-linecap="butt"/></g></g></svg>