<svg version="1.1" xmlns="http://www.w3.org/2000/svg" xmlns:xlink="http://www.w3.org/1999/xlink" width="30.57143" height="30.57143" viewBox="0,0,30.57143,30.57143"><defs><radialGradient cx="94.94286" cy="106.18571" r="15.28571" gradientUnits="userSpaceOnUse" id="color-1"><stop offset="0" stop-color="#c30000"/><stop offset="1" stop-color="#c30000" stop-opacity="0"/></radialGradient></defs><g transform="translate(-79.65714,-90.9)"><g data-paper-data="{&quot;isPaintingLayer&quot;:true}" fill-rule="nonzero" stroke-linejoin="miter" stroke-miterlimit="10" stroke-dasharray="" stroke-dashoffset="0" style="mix-blend-mode: normal"><path d="M85.69527,115.56001l-0.4,-19.8l19,0.8l0.6,19.2z" fill="#222222" stroke="#151516" stroke-width="3" stroke-linecap="butt"/><g fill="none" stroke="#c30000" stroke-width="3" stroke-linecap="round"><path d="M96.31547,98.78284c0,0 -1.40324,2.09499 -0.47246,3.5347c0.56612,0.87565 2.71196,2.4518 3.33134,3.48753c0.58936,0.98552 0.22299,2.18996 0.30509,2.90861c0.22828,1.99822 -1.29497,4.43786 -3.87007,4.53534c-4.31493,0.16334 -4.92873,-2.2437 -4.44235,-3.66616c0.32229,-0.94256 1.23996,-1.47744 1.23996,-1.47744"/><path d="M92.82576,103.82208c0,0 0.02577,0.59837 1.1156,1.41311c0.82568,0.61726 1.62114,1.35871 1.86667,2.05821c0.74234,2.11489 -1.02803,2.9537 -1.02803,2.9537"/></g><path d="M79.65714,106.18571c0,-8.44207 6.84365,-15.28571 15.28571,-15.28571c8.44207,0 15.28571,6.84365 15.28571,15.28571c0,8.44207 -6.84365,15.28571 -15.28571,15.28571c-8.44207,0 -15.28571,-6.84365 -15.28571,-15.28571z" fill="url(#color-1)" stroke="none" stroke-width="0" stroke-linecap="butt"/></g></g></svg>