<svg version="1.1" xmlns="http://www.w3.org/2000/svg" xmlns:xlink="http://www.w3.org/1999/xlink" width="141.5" height="142.5" viewBox="0,0,141.5,142.5"><g transform="translate(-124.8,-109.4)"><g data-paper-data="{&quot;isPaintingLayer&quot;:true}" fill-rule="nonzero" stroke-width="3" stroke-linejoin="miter" stroke-miterlimit="10" stroke-dasharray="" stroke-dashoffset="0" style="mix-blend-mode: normal"><path d="M124.8,251.9v-142.5h141.5v142.5z" fill-opacity="0.00784" fill="#000000" stroke="none" stroke-linecap="butt"/><path d="M184.72,218.31009l-0.8,16.2l-16.2,-10.2c0,0 -4.6737,-1.3077 -4.90986,-6.9915c-0.21158,-5.09214 4.70986,-5.0085 4.70986,-5.0085z" data-paper-data="{&quot;index&quot;:null}" fill="#6d6d6d" stroke="#414144" stroke-linecap="butt"/><path d="M205.92,219.11009c0,0 5.6,1.25163 5.6,9c0,8.8484 -5.6,9.6 -5.6,9.6h-35.6c0,0 -5.76153,-1.97912 -5.6,-8.8c0.20608,-8.70207 5.6,-9.8 5.6,-9.8z" data-paper-data="{&quot;index&quot;:null}" fill="#303030" stroke="#262628" stroke-linecap="butt"/><path d="M170.92,219.11009c0,0 3.24693,-0.03075 3.57374,9.60812c0.29298,8.64129 -3.97374,8.79188 -3.97374,8.79188" data-paper-data="{&quot;index&quot;:null}" fill="none" stroke="#262628" stroke-linecap="round"/></g></g></svg>