<svg version="1.1" xmlns="http://www.w3.org/2000/svg" xmlns:xlink="http://www.w3.org/1999/xlink" width="141.5" height="142.5" viewBox="0,0,141.5,142.5"><g transform="translate(-124.8,-109.4)"><g data-paper-data="{&quot;isPaintingLayer&quot;:true}" fill-rule="nonzero" stroke-width="3" stroke-linejoin="miter" stroke-miterlimit="10" stroke-dasharray="" stroke-dashoffset="0" style="mix-blend-mode: normal"><path d="M124.80001,251.9v-142.5h141.5v142.5z" fill-opacity="0.00784" fill="#000000" stroke="none" stroke-linecap="butt"/><path d="M180.73478,157.78383l3.60034,15.17885l-15.98643,1.7364c0,0 -4.70612,1.41667 -6.2591,-4.05647c-1.39132,-4.90341 3.28534,-7.57112 3.28534,-7.57112z" data-paper-data="{&quot;index&quot;:null}" fill="#6d6d6d" stroke="#414144" stroke-linecap="butt"/><path d="M210.07,156.36c0,0 5.6,1.25163 5.6,9c0,8.8484 -5.6,9.6 -5.6,9.6h-35.6c0,0 -5.76153,-1.97912 -5.6,-8.8c0.20608,-8.70207 5.6,-9.8 5.6,-9.8z" data-paper-data="{&quot;index&quot;:null}" fill="#303030" stroke="#262628" stroke-linecap="butt"/><path d="M175.07,156.36c0,0 3.24693,-0.03075 3.57374,9.60812c0.29298,8.64129 -3.97374,8.79188 -3.97374,8.79188" data-paper-data="{&quot;index&quot;:null}" fill="none" stroke="#262628" stroke-linecap="round"/></g></g></svg>