<svg version="1.1" xmlns="http://www.w3.org/2000/svg" xmlns:xlink="http://www.w3.org/1999/xlink" width="601.20119" height="288.58858" viewBox="0,0,601.20119,288.58858"><defs><linearGradient x1="240" y1="185.25525" x2="240" y2="372.94294" gradientUnits="userSpaceOnUse" id="color-1"><stop offset="0" stop-color="#ff0000" stop-opacity="0"/><stop offset="1" stop-color="#ff0000"/></linearGradient><radialGradient cx="-0.09008" cy="232.25226" r="75.82583" gradientUnits="userSpaceOnUse" id="color-2"><stop offset="0" stop-color="#ff0000" stop-opacity="0.36471"/><stop offset="1" stop-color="#ff0000" stop-opacity="0"/></radialGradient><radialGradient cx="65.22524" cy="190.96097" r="31.53153" gradientUnits="userSpaceOnUse" id="color-3"><stop offset="0" stop-color="#ff0000" stop-opacity="0.36471"/><stop offset="1" stop-color="#ff0000" stop-opacity="0"/></radialGradient><radialGradient cx="231.14116" cy="160.18018" r="75.82583" gradientUnits="userSpaceOnUse" id="color-4"><stop offset="0" stop-color="#ff0000" stop-opacity="0.36471"/><stop offset="1" stop-color="#ff0000" stop-opacity="0"/></radialGradient><radialGradient cx="165.82584" cy="118.88889" r="31.53154" gradientUnits="userSpaceOnUse" id="color-5"><stop offset="0" stop-color="#ff0000" stop-opacity="0.36471"/><stop offset="1" stop-color="#ff0000" stop-opacity="0"/></radialGradient><radialGradient cx="403.81382" cy="221.74174" r="75.82583" gradientUnits="userSpaceOnUse" id="color-6"><stop offset="0" stop-color="#ff0000" stop-opacity="0.36471"/><stop offset="1" stop-color="#ff0000" stop-opacity="0"/></radialGradient><radialGradient cx="469.12914" cy="180.45045" r="31.53154" gradientUnits="userSpaceOnUse" id="color-7"><stop offset="0" stop-color="#ff0000" stop-opacity="0.36471"/><stop offset="1" stop-color="#ff0000" stop-opacity="0"/></radialGradient></defs><g transform="translate(75.91591,-84.35436)"><g data-paper-data="{&quot;isPaintingLayer&quot;:true}" fill-rule="nonzero" stroke="none" stroke-width="0" stroke-linecap="butt" stroke-linejoin="miter" stroke-miterlimit="10" stroke-dasharray="" stroke-dashoffset="0" style="mix-blend-mode: normal"><path d="M-45.28529,372.94294v-187.68769h570.57057v187.68769z" fill="url(#color-1)"/><path d="M-75.91591,232.25226c0,-41.87745 33.94838,-75.82583 75.82583,-75.82583c41.87745,0 75.82583,33.94838 75.82583,75.82583c0,41.87745 -33.94838,75.82583 -75.82583,75.82583c-41.87745,0 -75.82583,-33.94838 -75.82583,-75.82583z" fill="url(#color-2)"/><path d="M33.6937,190.96097c0,-17.41438 14.11715,-31.53153 31.53153,-31.53153c17.41438,0 31.53153,14.11715 31.53153,31.53153c0,17.41438 -14.11715,31.53153 -31.53153,31.53153c-17.41438,0 -31.53153,-14.11715 -31.53153,-31.53153z" fill="url(#color-3)"/><path d="M231.14116,236.00601c-41.87745,0 -75.82583,-33.94838 -75.82583,-75.82583c0,-41.87744 33.94838,-75.82582 75.82583,-75.82582c41.87745,0 75.82583,33.94838 75.82583,75.82582c0,41.87745 -33.94838,75.82583 -75.82583,75.82583z" data-paper-data="{&quot;index&quot;:null}" fill="url(#color-4)"/><path d="M165.82584,150.42043c-17.41439,0 -31.53154,-14.11715 -31.53154,-31.53154c0,-17.41439 14.11715,-31.53153 31.53154,-31.53153c17.41438,0 31.53153,14.11714 31.53153,31.53153c0,17.41438 -14.11715,31.53154 -31.53153,31.53154z" data-paper-data="{&quot;index&quot;:null}" fill="url(#color-5)"/><path d="M327.988,221.74174c0,-41.87744 33.94838,-75.82582 75.82582,-75.82582c41.87745,0 75.82583,33.94838 75.82583,75.82582c0,41.87744 -33.94838,75.82583 -75.82583,75.82583c-41.87744,0 -75.82582,-33.94838 -75.82582,-75.82583z" fill="url(#color-6)"/><path d="M437.59761,180.45045c0,-17.41438 14.11715,-31.53153 31.53153,-31.53153c17.41439,0 31.53154,14.11714 31.53154,31.53153c0,17.41439 -14.11715,31.53154 -31.53154,31.53154c-17.41438,0 -31.53153,-14.11715 -31.53153,-31.53154z" fill="url(#color-7)"/></g></g></svg>