<svg version="1.1" xmlns="http://www.w3.org/2000/svg" xmlns:xlink="http://www.w3.org/1999/xlink" width="118.56542" height="95.59231" viewBox="0,0,118.56542,95.59231"><g transform="translate(-79.00627,-129.03476)"><g data-paper-data="{&quot;isPaintingLayer&quot;:true}" fill="none" fill-rule="nonzero" stroke-linejoin="miter" stroke-miterlimit="10" stroke-dasharray="" stroke-dashoffset="0" style="mix-blend-mode: normal"><path d="M86.46727,214.94151c-1.25586,-16.81594 -5.29694,-70.92601 -5.961,-79.81785c-0.18089,-2.42212 0.81506,-4.51834 2.39572,-4.5889c2.63361,-0.11757 6.46644,-0.28868 8.18369,-0.36534c1.66787,-0.07446 4.12352,1.50591 4.25026,3.57557c0.52676,8.6017 4.10807,67.0818 5.02382,82.03528c0.13572,2.2162 -1.54644,3.56174 -3.65187,3.66394c-2.26309,0.10986 -4.92606,0.23913 -6.23386,0.30261c-1.51453,0.07352 -3.77213,-1.66352 -4.00677,-4.80532z" stroke="#151516" stroke-width="3" stroke-linecap="butt"/><g stroke="#151516" stroke-width="3" stroke-linecap="round"><path d="M81.69527,144.16001c0,0 1.19038,-0.87107 2.79006,-0.96657c2.53088,-0.1511 6.08627,-0.36336 7.57301,-0.45212c1.31354,-0.07842 3.03694,0.41869 3.03694,0.41869"/><path d="M95.09528,141.36001c0,0 -1.29323,1.25333 -2.58029,1.33017c-2.67266,0.15956 -6.64355,0.42051 -8.24084,0.51587c-1.15527,0.06897 -2.97887,-0.84604 -2.97887,-0.84604"/></g><g stroke="#151516" stroke-width="3" stroke-linecap="round"><path d="M83.09527,156.76001c0,0 1.19038,-0.87106 2.79006,-0.96657c2.53087,-0.15109 6.08627,-0.36336 7.573,-0.45212c1.31355,-0.07842 3.03694,0.41869 3.03694,0.41869"/><path d="M96.49526,153.96001c0,0 -1.29323,1.25333 -2.58029,1.33017c-2.67265,0.15956 -6.64355,0.42051 -8.24084,0.51587c-1.15527,0.06897 -2.97886,-0.84604 -2.97886,-0.84604"/></g><g stroke="#151516" stroke-width="3" stroke-linecap="round"><path d="M83.69527,169.56001c0,0 1.19038,-0.87106 2.79006,-0.96657c2.53087,-0.15109 6.08627,-0.36336 7.573,-0.45212c1.31355,-0.07842 3.03694,0.41869 3.03694,0.41869"/><path d="M97.09527,166.76001c0,0 -1.29323,1.25333 -2.58029,1.33017c-2.67265,0.15956 -6.64355,0.42051 -8.24084,0.51587c-1.15527,0.06897 -2.97886,-0.84604 -2.97886,-0.84604"/></g><g stroke="#151516" stroke-width="3" stroke-linecap="round"><path d="M84.49528,182.76001c0,0 1.19038,-0.87106 2.79006,-0.96657c2.53087,-0.15109 6.08627,-0.36336 7.573,-0.45212c1.31355,-0.07842 3.03694,0.41869 3.03694,0.41869"/><path d="M97.89527,179.96001c0,0 -1.29323,1.25333 -2.58029,1.33017c-2.67265,0.15956 -6.64355,0.42051 -8.24084,0.51587c-1.15527,0.06897 -2.97886,-0.84604 -2.97886,-0.84604"/></g><g stroke="#151516" stroke-width="3" stroke-linecap="round"><path d="M85.29527,195.36001c0,0 1.19037,-0.87106 2.79005,-0.96657c2.53087,-0.15109 6.08627,-0.36336 7.57301,-0.45212c1.31355,-0.07842 3.03694,0.41869 3.03694,0.41869"/><path d="M98.69528,192.56002c0,0 -1.29323,1.25332 -2.58029,1.33016c-2.67265,0.15956 -6.64355,0.42051 -8.24084,0.51587c-1.15527,0.06897 -2.97887,-0.84604 -2.97887,-0.84604"/></g><g stroke="#151516" stroke-width="3" stroke-linecap="round"><path d="M86.29527,208.16001c0,0 1.19038,-0.87107 2.79006,-0.96657c2.53087,-0.15109 6.08627,-0.36336 7.573,-0.45212c1.31355,-0.07842 3.03694,0.41869 3.03694,0.41869"/><path d="M99.69527,205.36001c0,0 -1.29323,1.25332 -2.58029,1.33016c-2.67265,0.15956 -6.64355,0.42052 -8.24084,0.51588c-1.15527,0.06897 -2.97886,-0.84604 -2.97886,-0.84604"/></g><g stroke-linecap="round"><g stroke="#5b0000" stroke-width="5"><path d="M190.06792,145.32963c0,0 -1.4361,2.37563 -0.48352,4.00821c0.57938,0.99295 2.77546,2.78024 3.40935,3.95472c0.60316,1.11754 0.22821,2.48333 0.31223,3.29824c0.23363,2.2659 -1.32529,5.03235 -3.96069,5.14289c-4.41597,0.18522 -5.04414,-2.54426 -4.54637,-4.15727c0.32984,-1.06883 1.269,-1.67536 1.269,-1.67536"/><path d="M186.49649,151.04392c0,0 0.02637,0.67853 1.14172,1.60241c0.84501,0.69995 1.6591,1.54072 1.91038,2.33393c0.75972,2.3982 -1.0521,3.34937 -1.0521,3.34937"/></g><g stroke="#c30000" stroke-width="3"><path d="M190.06792,145.32963c0,0 -1.4361,2.37563 -0.48352,4.00821c0.57938,0.99295 2.77546,2.78024 3.40935,3.95472c0.60316,1.11754 0.22821,2.48333 0.31223,3.29824c0.23363,2.2659 -1.32529,5.03235 -3.96069,5.14289c-4.41597,0.18522 -5.04414,-2.54426 -4.54637,-4.15727c0.32984,-1.06883 1.269,-1.67536 1.269,-1.67536"/><path d="M186.49649,151.04392c0,0 0.02637,0.67853 1.14172,1.60241c0.84501,0.69995 1.6591,1.54072 1.91038,2.33393c0.75972,2.3982 -1.0521,3.34937 -1.0521,3.34937"/></g></g><g stroke-linecap="round"><g stroke="#002b67" stroke-width="4"><path d="M185.03329,215.77408h7.37084"/><path d="M188.71871,219.4595v-7.37085"/><path d="M185.55114,212.6065l2.26363,2.26363"/><path d="M189.62265,216.67801l2.26363,2.26363"/><path d="M185.55114,218.94165l2.26363,-2.26363"/><path d="M189.62265,214.87014l2.26363,-2.26364"/><path d="M181.86572,212.6065l2.26363,2.26363"/><path d="M181.86572,218.94165l2.26363,-2.26363"/><path d="M185.55114,222.62707l2.26363,-2.26364"/><path d="M189.62265,220.36343l2.26363,2.26364"/><path d="M195.5717,212.6065l-2.26363,2.26364"/><path d="M193.30807,216.67801l2.26363,2.26364"/><path d="M189.62265,211.18472l2.26363,-2.26364"/><path d="M185.55114,208.92108l2.26363,2.26363"/></g><g stroke="#0051c2" stroke-width="2"><path d="M185.03329,215.77408h7.37084"/><path d="M188.71871,212.08866v7.37084"/><path d="M185.55114,212.6065l2.26363,2.26363"/><path d="M189.62265,216.67801l2.26364,2.26364"/><path d="M185.55114,218.94165l2.26363,-2.26363"/><path d="M189.62265,214.87014l2.26364,-2.26364"/><path d="M181.86572,212.6065l2.26363,2.26363"/><path d="M181.86572,218.94165l2.26363,-2.26363"/><path d="M185.55114,222.62707l2.26363,-2.26363"/><path d="M189.62265,220.36343l2.26364,2.26364"/><path d="M193.30807,214.87014l2.26364,-2.26364"/><path d="M193.30807,216.67801l2.26364,2.26364"/><path d="M189.62265,211.18472l2.26364,-2.26364"/><path d="M185.55114,208.92108l2.26363,2.26363"/></g></g></g></g></svg>