<svg version="1.1" xmlns="http://www.w3.org/2000/svg" xmlns:xlink="http://www.w3.org/1999/xlink" width="141.5" height="142.5" viewBox="0,0,141.5,142.5"><g transform="translate(-124.8,-109.4)"><g data-paper-data="{&quot;isPaintingLayer&quot;:true}" fill-rule="nonzero" stroke-width="3" stroke-linejoin="miter" stroke-miterlimit="10" stroke-dasharray="" stroke-dashoffset="0" style="mix-blend-mode: normal"><path d="M124.80001,251.9v-142.5h141.5v142.5z" fill-opacity="0.00784" fill="#000000" stroke="none" stroke-linecap="butt"/><path d="M166.15446,189.21c0,0 -5.16609,-1.51636 -4.94399,-6.6085c0.2479,-5.6838 5.15393,-5.3915 5.15393,-5.3915l15.9556,-2v15.6z" fill="#6d6d6d" stroke="#414144" stroke-linecap="butt"/><path d="M178.72,192.21c0,0 -5.39392,-1.09793 -5.6,-9.8c-0.16153,-6.82088 5.6,-8.8 5.6,-8.8h35.6c0,0 5.6,0.7516 5.6,9.6c0,7.74837 -5.6,9 -5.6,9z" fill="#303030" stroke="#262628" stroke-linecap="butt"/><path d="M178.92,173.81c0,0 4.26672,0.15059 3.97374,8.79188c-0.32681,9.63887 -3.57374,9.60812 -3.57374,9.60812" fill="none" stroke="#262628" stroke-linecap="round"/></g></g></svg>